<svg width="300" height="303" viewBox="0 0 300 303" fill="none" xmlns="http://www.w3.org/2000/svg">
<g id="wheel_Back">
<g filter="url(#filter0_i_1_3469)">
<path d="M135 2.41998C110.4 5.68998 87.8201 12.85 67.0001 26.67C50.4001 37.68 36.4302 51.3999 25.3502 67.9999C-31.5298 153.3 14.1901 271.25 113 297.27C131.1 302.03 150.49 302.99 169 300.71C190.27 298.09 210.66 290.87 229 279.8C319.47 225.16 323.68 87.9399 236 28.3399C221.08 18.1999 204.55 10.4099 187 6.12994C170.52 2.10994 151.9 0.179983 135 2.41998Z" fill="#00FFA3"/>
</g>
<path d="M135 2.41998C110.4 5.68998 87.8201 12.85 67.0001 26.67C50.4001 37.68 36.4302 51.3999 25.3502 67.9999C-31.5298 153.3 14.1901 271.25 113 297.27C131.1 302.03 150.49 302.99 169 300.71C190.27 298.09 210.66 290.87 229 279.8C319.47 225.16 323.68 87.9399 236 28.3399C221.08 18.1999 204.55 10.4099 187 6.12994C170.52 2.10994 151.9 0.179983 135 2.41998Z" stroke="#F178B6"/>
</g>
<defs>
<filter id="filter0_i_1_3469" x="0.0223389" y="0.972534" width="299.85" height="305.417" filterUnits="userSpaceOnUse" colorInterpolationFilters="sRGB">
<feFlood floodOpacity="0" result="BackgroundImageFix"/>
<feBlend mode="normal" in="SourceGraphic" in2="BackgroundImageFix" result="shape"/>
<feColorMatrix in="SourceAlpha" type="matrix" values="0 0 0 0 0 0 0 0 0 0 0 0 0 0 0 0 0 0 127 0" result="hardAlpha"/>
<feOffset dy="4"/>
<feGaussianBlur stdDeviation="2"/>
<feComposite in2="hardAlpha" operator="arithmetic" k2="-1" k3="1"/>
<feColorMatrix type="matrix" values="0 0 0 0 0 0 0 0 0 0 0 0 0 0 0 0 0 0 0.25 0"/>
<feBlend mode="normal" in2="shape" result="effect1_innerShadow_1_3469"/>
</filter>
</defs>
</svg>
